<svg width="25" height="25" viewBox="0 0 25 25" fill="none" xmlns="http://www.w3.org/2000/svg">
<path d="M9.81334 11.6479C11.8016 11.6479 13.4133 10.0361 13.4133 8.04791C13.4133 6.05968 11.8016 4.44791 9.81334 4.44791C7.82512 4.44791 6.21334 6.05968 6.21334 8.04791C6.21334 10.0361 7.82512 11.6479 9.81334 11.6479Z" fill="#6B7280"/>
<path d="M9.81334 14.0479C13.7898 14.0479 17.0133 17.2715 17.0133 21.2479H2.61334C2.61334 17.2715 5.83689 14.0479 9.81334 14.0479Z" fill="#6B7280"/>
<path d="M19.4133 9.24791C19.4133 8.58516 18.8761 8.04791 18.2133 8.04791C17.5506 8.04791 17.0133 8.58516 17.0133 9.24791V10.4479H15.8133C15.1506 10.4479 14.6133 10.9852 14.6133 11.6479C14.6133 12.3106 15.1506 12.8479 15.8133 12.8479H17.0133V14.0479C17.0133 14.7106 17.5506 15.2479 18.2133 15.2479C18.8761 15.2479 19.4133 14.7106 19.4133 14.0479V12.8479H20.6133C21.2761 12.8479 21.8133 12.3106 21.8133 11.6479C21.8133 10.9852 21.2761 10.4479 20.6133 10.4479H19.4133V9.24791Z" fill="#6B7280"/>
</svg>
