<svg width="25" height="25" viewBox="0 0 25 25" fill="none" xmlns="http://www.w3.org/2000/svg">
<path d="M10.538 4.50322C10.9644 2.74681 13.4624 2.74681 13.8888 4.50322C14.1642 5.63784 15.4641 6.17629 16.4612 5.56876C18.0047 4.6283 19.771 6.39462 18.8305 7.9381C18.223 8.93517 18.7615 10.2351 19.8961 10.5105C21.6525 10.9369 21.6525 13.4349 19.8961 13.8613C18.7615 14.1367 18.223 15.4367 18.8305 16.4337C19.771 17.9772 18.0047 19.7435 16.4612 18.8031C15.4641 18.1955 14.1642 18.734 13.8888 19.8686C13.4624 21.625 10.9644 21.625 10.538 19.8686C10.2626 18.734 8.96264 18.1955 7.96557 18.8031C6.42208 19.7435 4.65577 17.9772 5.59623 16.4337C6.20375 15.4367 5.66531 14.1367 4.53069 13.8613C2.77428 13.4349 2.77428 10.9369 4.53069 10.5105C5.66531 10.2351 6.20375 8.93517 5.59623 7.9381C4.65577 6.39462 6.42208 4.6283 7.96556 5.56876C8.96263 6.17629 10.2626 5.63784 10.538 4.50322Z" stroke="#6B7280" stroke-width="2.07752" stroke-linecap="round" stroke-linejoin="round"/>
<path d="M15.2134 12.1859C15.2134 13.8428 13.8702 15.1859 12.2134 15.1859C10.5565 15.1859 9.21338 13.8428 9.21338 12.1859C9.21338 10.5291 10.5565 9.18591 12.2134 9.18591C13.8702 9.18591 15.2134 10.5291 15.2134 12.1859Z" stroke="#6B7280" stroke-width="2.07752" stroke-linecap="round" stroke-linejoin="round"/>
</svg>
