<svg width="20" height="20" viewBox="0 0 20 20" fill="none" xmlns="http://www.w3.org/2000/svg">
<path fill-rule="evenodd" clip-rule="evenodd" d="M9.99996 11.034L14.1736 6.94553C14.5533 6.5736 15.1689 6.5736 15.5485 6.94553C15.9282 7.31746 15.9282 7.92047 15.5485 8.2924L10.6874 13.0543C10.3077 13.4262 9.69217 13.4262 9.31249 13.0543L4.45138 8.2924C4.07171 7.92047 4.07171 7.31746 4.45138 6.94553C4.83106 6.5736 5.44664 6.5736 5.82631 6.94553L9.99996 11.034Z" fill="white"/>
<mask id="mask0_631_3239" style="mask-type:luminance" maskUnits="userSpaceOnUse" x="4" y="6" width="12" height="8">
<path fill-rule="evenodd" clip-rule="evenodd" d="M9.99996 11.034L14.1736 6.94553C14.5533 6.5736 15.1689 6.5736 15.5485 6.94553C15.9282 7.31746 15.9282 7.92047 15.5485 8.2924L10.6874 13.0543C10.3077 13.4262 9.69217 13.4262 9.31249 13.0543L4.45138 8.2924C4.07171 7.92047 4.07171 7.31746 4.45138 6.94553C4.83106 6.5736 5.44664 6.5736 5.82631 6.94553L9.99996 11.034Z" fill="white"/>
</mask>
<g mask="url(#mask0_631_3239)">
</g>
</svg>
