<svg width="24" height="24" viewBox="0 0 24 24" fill="none" xmlns="http://www.w3.org/2000/svg">
<path fill-rule="evenodd" clip-rule="evenodd" d="M13.8787 3.70729C15.0503 2.53572 16.9497 2.53572 18.1213 3.70729L20.2929 5.87887C21.4645 7.05044 21.4645 8.94993 20.2929 10.1215L9.70711 20.7073C9.51957 20.8948 9.26522 21.0002 9 21.0002H4C3.44772 21.0002 3 20.5525 3 20.0002V15.0002C3 14.735 3.10536 14.4806 3.29289 14.2931L13.8787 3.70729ZM16.7071 5.12151C16.3166 4.73098 15.6834 4.73098 15.2929 5.12151L14.4142 6.00019L18 9.58597L18.8787 8.70729C19.2692 8.31677 19.2692 7.6836 18.8787 7.29308L16.7071 5.12151ZM16.5858 11.0002L13 7.4144L5 15.4144V19.0002H8.58579L16.5858 11.0002Z" fill="black"/>
</svg>
