<svg width="25" height="27" viewBox="0 0 25 27" fill="none" xmlns="http://www.w3.org/2000/svg">
<path fill-rule="evenodd" clip-rule="evenodd" d="M14.2438 20.3041L12.2134 22.355L10.183 20.3041C6.19238 19.3732 3.21338 15.7587 3.21338 11.4459C3.21338 6.42775 7.24538 2.35502 12.2134 2.35502C17.1814 2.35502 21.2134 6.42775 21.2134 11.4459C21.2134 15.7587 18.2344 19.3732 14.2438 20.3041ZM13.9946 5.70288C14.2071 5.82553 14.2799 6.09718 14.1572 6.30961L14.1489 6.32343L11.1458 11.1146C11.0775 11.2235 10.9353 11.2588 10.824 11.1946C10.7127 11.1303 10.6722 10.9895 10.7324 10.8759L13.3801 5.87956C13.495 5.66281 13.7638 5.58022 13.9805 5.69508L13.9946 5.70288ZM16.3683 6.99204C16.5324 7.17433 16.5177 7.45517 16.3354 7.61931L16.3232 7.62988L11.9865 11.2585C11.8879 11.341 11.7418 11.3307 11.6558 11.2352C11.5698 11.1397 11.5748 10.9932 11.6671 10.9038L15.7292 6.97017C15.9054 6.79952 16.1866 6.80404 16.3572 6.98026L16.3683 6.99204ZM16.4249 11.4981H7.21334C7.21334 13.7874 9.06922 15.6433 11.3586 15.6433H12.2797C14.5691 15.6433 16.4249 13.7874 16.4249 11.4981Z" fill="#ADADAD"/>
<g filter="url(#filter0_f_64_287)">
<rect x="8.21344" y="22.355" width="8" height="1" fill="#ACB1C0"/>
</g>
<defs>
<filter id="filter0_f_64_287" x="5.3898" y="19.5314" width="13.6473" height="6.64728" filterUnits="userSpaceOnUse" color-interpolation-filters="sRGB">
<feFlood flood-opacity="0" result="BackgroundImageFix"/>
<feBlend mode="normal" in="SourceGraphic" in2="BackgroundImageFix" result="shape"/>
<feGaussianBlur stdDeviation="1.41182" result="effect1_foregroundBlur_64_287"/>
</filter>
</defs>
</svg>
