<svg width="25" height="25" viewBox="0 0 25 25" fill="none" xmlns="http://www.w3.org/2000/svg">
<path d="M17.2134 20.4328H22.2134V18.4328C22.2134 16.776 20.8703 15.4328 19.2134 15.4328C18.2578 15.4328 17.4066 15.8796 16.8572 16.5757M17.2134 20.4328H7.21344M17.2134 20.4328V18.4328C17.2134 17.7766 17.087 17.1499 16.8572 16.5757M7.21344 20.4328H2.21344V18.4328C2.21344 16.776 3.55659 15.4328 5.21344 15.4328C6.16905 15.4328 7.0203 15.8796 7.56969 16.5757M7.21344 20.4328V18.4328C7.21344 17.7766 7.33986 17.1499 7.56969 16.5757M7.56969 16.5757C8.30694 14.7338 10.1083 13.4328 12.2134 13.4328C14.3186 13.4328 16.1199 14.7338 16.8572 16.5757M15.2134 7.43281C15.2134 9.08966 13.8703 10.4328 12.2134 10.4328C10.5566 10.4328 9.21344 9.08966 9.21344 7.43281C9.21344 5.77595 10.5566 4.43281 12.2134 4.43281C13.8703 4.43281 15.2134 5.77595 15.2134 7.43281ZM21.2134 10.4328C21.2134 11.5374 20.318 12.4328 19.2134 12.4328C18.1089 12.4328 17.2134 11.5374 17.2134 10.4328C17.2134 9.32824 18.1089 8.43281 19.2134 8.43281C20.318 8.43281 21.2134 9.32824 21.2134 10.4328ZM7.21344 10.4328C7.21344 11.5374 6.31801 12.4328 5.21344 12.4328C4.10887 12.4328 3.21344 11.5374 3.21344 10.4328C3.21344 9.32824 4.10887 8.43281 5.21344 8.43281C6.31801 8.43281 7.21344 9.32824 7.21344 10.4328Z" stroke="#6B7280" stroke-width="2.07752" stroke-linecap="round" stroke-linejoin="round"/>
</svg>
