<svg width="19" height="19" viewBox="0 0 19 19" fill="none" xmlns="http://www.w3.org/2000/svg">
<path d="M10.4875 0.395368C9.88287 -0.131789 8.93713 -0.131789 8.33254 0.395368L0.736301 7.01878C0.266303 7.42859 0 7.99878 0 8.59528V16.6504C0 17.8486 1.05325 18.82 2.3525 18.82H4.705C6.00425 18.82 7.0575 17.8486 7.0575 16.6504V13.0345C7.0575 12.6352 7.40859 12.3114 7.84167 12.3114H10.9783C11.4114 12.3114 11.7625 12.6352 11.7625 13.0345V16.6504C11.7625 17.8486 12.8158 18.82 14.115 18.82H16.4675C17.7667 18.82 18.82 17.8486 18.82 16.6504V8.59528C18.82 7.99878 18.5537 7.42859 18.0837 7.01878L10.4875 0.395368Z" fill="#6B7280"/>
</svg>
