<svg width="17" height="17" viewBox="0 0 17 17" fill="none" xmlns="http://www.w3.org/2000/svg">
<path d="M12.8612 11.958L12.0204 12.7896C11.4006 13.3974 10.5966 14.1794 9.60781 15.1356C9.31062 15.423 8.91339 15.5836 8.49998 15.5836C8.08658 15.5836 7.68935 15.423 7.39215 15.1356L4.91936 12.7301C4.6084 12.4248 4.34844 12.1677 4.13877 11.958C3.27628 11.0955 2.68893 9.99655 2.451 8.80019C2.21306 7.60384 2.33522 6.36379 2.80203 5.23686C3.26885 4.10993 4.05935 3.14673 5.07357 2.46906C6.08779 1.79139 7.28019 1.42969 8.49998 1.42969C9.71977 1.42969 10.9122 1.79139 11.9264 2.46906C12.9406 3.14673 13.7311 4.10993 14.1979 5.23686C14.6647 6.36379 14.7869 7.60384 14.549 8.80019C14.311 9.99655 13.7237 11.0955 12.8612 11.958ZM10.2708 7.79162C10.2708 7.32197 10.0842 6.87155 9.75215 6.53945C9.42005 6.20736 8.96964 6.02079 8.49998 6.02079C8.03033 6.02079 7.57991 6.20736 7.24781 6.53945C6.91572 6.87155 6.72915 7.32197 6.72915 7.79162C6.72915 8.26128 6.91572 8.7117 7.24781 9.04379C7.57991 9.37589 8.03033 9.56246 8.49998 9.56246C8.96964 9.56246 9.42005 9.37589 9.75215 9.04379C10.0842 8.7117 10.2708 8.26128 10.2708 7.79162Z" fill="white"/>
</svg>
