<svg width="18" height="18" viewBox="0 0 18 18" fill="none" xmlns="http://www.w3.org/2000/svg">
<path d="M8.9925 1.5C4.8525 1.5 1.5 4.86 1.5 9C1.5 13.14 4.8525 16.5 8.9925 16.5C13.14 16.5 16.5 13.14 16.5 9C16.5 4.86 13.14 1.5 8.9925 1.5ZM12 12C11.9306 12.0695 11.8482 12.1247 11.7575 12.1623C11.6667 12.2 11.5695 12.2193 11.4713 12.2193C11.373 12.2193 11.2758 12.2 11.185 12.1623C11.0943 12.1247 11.0119 12.0695 10.9425 12L8.475 9.5325C8.40413 9.46304 8.34776 9.38021 8.30913 9.2888C8.27051 9.19739 8.25041 9.09923 8.25 9V6C8.25 5.5875 8.5875 5.25 9 5.25C9.4125 5.25 9.75 5.5875 9.75 6V8.6925L12 10.9425C12.2925 11.235 12.2925 11.7075 12 12Z" fill="white"/>
</svg>
