<svg width="45" height="45" viewBox="0 0 45 45" fill="none" xmlns="http://www.w3.org/2000/svg">
<g filter="url(#filter0_d_64_329)">
<path d="M23.5805 0.402776C20.883 0.400654 18.2228 1.01544 15.8146 2.1975C13.3105 3.35657 11.1323 5.08829 9.46628 7.24455C7.80029 9.4008 6.6961 11.9174 6.24817 14.5792C5.80023 17.2409 6.02188 19.9686 6.89414 22.5289C7.7664 25.0891 9.26333 27.4058 11.2569 29.2808L4.5957 34.7769L7.51044 37.6135L13.4216 31.0087C16.2901 32.9498 19.7016 33.989 23.1962 33.9861H23.3651H23.5805C28.1596 33.9861 32.5512 32.217 35.7891 29.0679C39.027 25.9189 40.8461 21.6479 40.8461 17.1944C40.8461 12.741 39.027 8.46999 35.7891 5.32094C32.5512 2.17189 28.1596 0.402776 23.5805 0.402776ZM7.16327 35.7808C6.9849 35.7805 6.81063 35.7287 6.6625 35.6321C6.51437 35.5354 6.39901 35.3983 6.33101 35.2379C6.263 35.0775 6.2454 34.9011 6.28042 34.731C6.31544 34.5609 6.40152 34.4048 6.52778 34.2822C6.65404 34.1597 6.81481 34.0763 6.98978 34.0426C7.16475 34.0089 7.34608 34.0263 7.51084 34.0928C7.67559 34.1593 7.8164 34.2717 7.91546 34.416C8.01452 34.5603 8.06739 34.7299 8.06739 34.9033C8.0669 35.1362 7.97143 35.3594 7.80193 35.5239C7.63242 35.6884 7.40274 35.7808 7.16327 35.7808Z" fill="#B64B29"/>
<path d="M10.2097 9.47025H10.75C10.8933 9.46952 11.0327 9.51597 11.1454 9.60206C11.2615 9.68801 11.3456 9.80846 11.3849 9.94511L12.6845 14.4139C12.6975 14.4651 12.7291 14.51 12.7736 14.5403C12.8143 14.5685 12.8628 14.5842 12.9128 14.5854C12.9618 14.5847 13.0092 14.5689 13.0483 14.5403C13.0917 14.5078 13.1245 14.4639 13.143 14.4139L14.5354 9.57136C14.5433 9.54248 14.5607 9.51694 14.5851 9.49872C14.6094 9.4805 14.6393 9.47062 14.67 9.47062C14.7007 9.47062 14.7306 9.4805 14.7549 9.49872C14.7793 9.51694 14.7967 9.54248 14.8046 9.57136C14.8324 9.67248 14.8751 9.81692 14.9308 10.0065C14.9865 10.1961 15.0478 10.4128 15.1165 10.6583C15.1852 10.9039 15.2613 11.1675 15.3411 11.4509C15.421 11.7344 15.5026 12.0143 15.5843 12.2905C15.7712 12.9441 15.9761 13.6519 16.1988 14.4139C16.2104 14.4652 16.2416 14.5104 16.2861 14.5403C16.3275 14.5685 16.3766 14.5842 16.4272 14.5854C16.4772 14.5842 16.5257 14.5685 16.5664 14.5403C16.6115 14.5106 16.6433 14.4654 16.6555 14.4139L17.9551 9.93428C17.9959 9.80562 18.077 9.69261 18.1872 9.61109C18.3002 9.52303 18.4415 9.47638 18.5863 9.47928H19.4385C19.3427 9.49182 19.2525 9.53065 19.1786 9.59123C19.1029 9.65042 19.0483 9.73128 19.0226 9.82234L16.9452 16.9904L16.9229 17.0608H16.3938C16.2603 17.0611 16.1303 17.02 16.0225 16.9434C15.915 16.8693 15.8381 16.7606 15.8053 16.6365L14.786 13.1175L14.6709 12.713L14.5465 13.1175L13.4326 16.9904L13.4122 17.0608H12.8701C12.7364 17.0628 12.6058 17.0215 12.4988 16.9434C12.3927 16.8687 12.3172 16.76 12.2853 16.6365L10.2097 9.47025Z" fill="white"/>
<path d="M21.7239 9.27164V10.9996C21.7222 11.0699 21.7357 11.1399 21.7636 11.2049C21.7914 11.2699 21.8329 11.3285 21.8854 11.3769C21.9374 11.427 21.9991 11.4665 22.0671 11.4928C22.135 11.5192 22.2077 11.532 22.2809 11.5304H24.0687C24.216 11.5281 24.3581 11.5826 24.4642 11.6821C24.5168 11.7308 24.5584 11.7897 24.5863 11.855C24.6141 11.9203 24.6275 11.9906 24.6257 12.0612V12.4783H20.0159C20.1632 12.4806 20.3054 12.4261 20.4114 12.3266C20.4642 12.278 20.506 12.2191 20.5342 12.1538C20.5623 12.0885 20.5761 12.0183 20.5747 11.9475V5.42039C20.5733 5.23395 20.6125 5.04933 20.6898 4.87873C20.8417 4.54327 21.1172 4.2753 21.4622 4.12762C21.6375 4.052 21.8273 4.01324 22.0191 4.01387H24.0613C24.1344 4.01227 24.2071 4.02504 24.2751 4.05141C24.343 4.07778 24.4048 4.11721 24.4567 4.16734C24.5093 4.21577 24.5508 4.27437 24.5786 4.33937C24.6064 4.40437 24.6199 4.47431 24.6182 4.5447V4.96178H22.2809C22.1334 4.95999 21.9912 5.01518 21.8854 5.11525C21.8329 5.16369 21.7914 5.22229 21.7636 5.28729C21.7357 5.35228 21.7222 5.42223 21.7239 5.49262V7.83984C21.8224 7.81691 21.9234 7.8054 22.0247 7.80553H24.0334V8.22442C24.0351 8.29481 24.0216 8.36475 23.9938 8.42975C23.966 8.49475 23.9245 8.55335 23.8719 8.60178C23.82 8.65191 23.7582 8.69134 23.6903 8.71771C23.6223 8.74408 23.5496 8.75685 23.4765 8.75526H22.2809C22.1336 8.75298 21.9915 8.80751 21.8854 8.90692C21.8347 8.95403 21.7942 9.01061 21.7665 9.07328C21.7387 9.13594 21.7242 9.20341 21.7239 9.27164Z" fill="white"/>
<path d="M31.0697 13.1211V13.5382H28.9681C28.7765 13.5385 28.5869 13.5004 28.4111 13.4262C28.2402 13.3529 28.0848 13.2494 27.9526 13.1211C27.821 12.9922 27.7147 12.8411 27.6388 12.6751C27.5618 12.5044 27.5225 12.3199 27.5237 12.1335V5.06831H28.1178C28.1907 5.0656 28.2635 5.07739 28.3316 5.10297C28.3997 5.12854 28.4617 5.16737 28.5138 5.21706C28.566 5.26675 28.6071 5.32627 28.6348 5.39197C28.6625 5.45766 28.6761 5.52816 28.6747 5.59915V12.0594C28.6729 12.13 28.6866 12.2001 28.7147 12.2652C28.7429 12.3302 28.785 12.3887 28.8381 12.4368C28.8897 12.4869 28.9511 12.5263 29.0188 12.5526C29.0864 12.579 29.1588 12.5918 29.2317 12.5903H30.5313C30.6033 12.589 30.6748 12.6019 30.7416 12.6282C30.8084 12.6544 30.8691 12.6935 30.92 12.743C30.971 12.7926 31.0111 12.8516 31.0381 12.9165C31.0651 12.9815 31.0783 13.051 31.0771 13.1211H31.0697Z" fill="white"/>
<path d="M36.8119 17.1439V17.5555H34.7103C34.5184 17.5565 34.3286 17.5177 34.1533 17.4418C33.8075 17.2963 33.5314 17.0285 33.381 16.6925C33.3034 16.5219 33.2635 16.3374 33.264 16.1508V9.09109H33.8674C33.9379 9.09181 34.0076 9.10623 34.0723 9.13352C34.1371 9.16081 34.1955 9.2004 34.2443 9.24998C34.2952 9.29968 34.3353 9.35889 34.3621 9.42405C34.3889 9.48922 34.4019 9.55898 34.4002 9.62915V16.0894C34.3984 16.16 34.4121 16.2301 34.4402 16.2952C34.4684 16.3602 34.5104 16.4187 34.5636 16.4668C34.6689 16.5664 34.8103 16.6216 34.9572 16.6203H36.2568C36.3288 16.619 36.4003 16.6319 36.4671 16.6582C36.5339 16.6844 36.5946 16.7235 36.6455 16.773C36.6964 16.8226 36.7366 16.8816 36.7636 16.9465C36.7906 17.0115 36.8038 17.081 36.8026 17.1511L36.8119 17.1439Z" fill="white"/>
<path d="M19.7523 19.2907V19.6969H16.8617C16.7893 19.6952 16.7174 19.7083 16.6505 19.7353C16.5837 19.7624 16.5234 19.8028 16.4737 19.854C16.3708 19.9568 16.3141 20.0952 16.3159 20.2386V22.0008L16.4552 21.9828C16.5022 21.9828 16.5523 21.9828 16.6055 21.9828H18.6143V22.4017C18.6155 22.4717 18.6023 22.5413 18.5753 22.6062C18.5483 22.6712 18.5082 22.7302 18.4572 22.7797C18.4063 22.8293 18.3456 22.8683 18.2788 22.8946C18.212 22.9208 18.1405 22.9337 18.0685 22.9325H16.8617C16.7897 22.9313 16.7182 22.9442 16.6514 22.9704C16.5846 22.9967 16.5239 23.0357 16.473 23.0853C16.422 23.1348 16.3819 23.1938 16.3549 23.2588C16.3279 23.3237 16.3147 23.3933 16.3159 23.4633V26.6935C16.3178 26.7634 16.3049 26.8329 16.2781 26.8978C16.2512 26.9627 16.211 27.0216 16.16 27.0708C16.1101 27.1206 16.0503 27.16 15.9842 27.1864C15.9181 27.2128 15.8471 27.2257 15.7757 27.2243H14.6209C14.6929 27.2258 14.7645 27.2129 14.8312 27.1865C14.8979 27.1601 14.9584 27.1208 15.0089 27.0708C15.0606 27.022 15.1013 26.9632 15.1285 26.8982C15.1556 26.8333 15.1687 26.7636 15.1667 26.6935V20.1592C15.1655 19.9727 15.2047 19.7882 15.2818 19.6175C15.4307 19.2832 15.7029 19.0152 16.0449 18.8664C16.2202 18.791 16.4101 18.7528 16.6018 18.7544H19.2009C19.3487 18.7544 19.4903 18.8115 19.5948 18.9131C19.6992 19.0147 19.7579 19.1525 19.7579 19.2961L19.7523 19.2907Z" fill="white"/>
<path d="M22.2158 27.3453V29.0732C22.214 29.1437 22.2277 29.2139 22.2558 29.2789C22.284 29.344 22.326 29.4025 22.3792 29.4505C22.4308 29.5006 22.4922 29.54 22.5599 29.5664C22.6275 29.5928 22.6999 29.6056 22.7728 29.604H24.5606C24.7079 29.6017 24.85 29.6563 24.9561 29.7557C25.0089 29.8044 25.0507 29.8632 25.0788 29.9285C25.107 29.9938 25.1208 30.0641 25.1194 30.1349V30.5555H20.506C20.5787 30.557 20.6509 30.5444 20.7185 30.5183C20.7861 30.4923 20.8477 30.4534 20.8996 30.4039C20.9541 30.3542 20.997 30.2936 21.0252 30.2263C21.0534 30.159 21.0663 30.0865 21.0629 30.0139V23.494C21.0624 23.3077 21.1016 23.1232 21.178 22.9524C21.3299 22.6169 21.6054 22.3489 21.9504 22.2012C22.1257 22.1257 22.3155 22.087 22.5073 22.0875H24.5495C24.6226 22.0858 24.6954 22.0985 24.7633 22.1249C24.8313 22.1513 24.8931 22.1907 24.9449 22.241C24.9977 22.2893 25.0395 22.3479 25.0676 22.4128C25.0958 22.4778 25.1096 22.5478 25.1083 22.6183V23.0372H22.7728C22.7001 23.0357 22.6279 23.0484 22.5603 23.0744C22.4927 23.1005 22.4311 23.1394 22.3792 23.1889C22.326 23.2369 22.284 23.2954 22.2558 23.3605C22.2277 23.4255 22.214 23.4957 22.2158 23.5662V25.9135C22.315 25.8904 22.4165 25.8789 22.5184 25.8792H24.5272V26.298C24.529 26.3686 24.5154 26.4387 24.4872 26.5038C24.459 26.5689 24.417 26.6273 24.3638 26.6754C24.312 26.7256 24.2502 26.7651 24.1822 26.7915C24.1143 26.8179 24.0415 26.8306 23.9684 26.8289H22.7728C22.7001 26.8274 22.6279 26.84 22.5603 26.8661C22.4927 26.8921 22.4311 26.931 22.3792 26.9805C22.328 27.0274 22.2872 27.0839 22.2591 27.1466C22.231 27.2093 22.2163 27.2769 22.2158 27.3453Z" fill="white"/>
<path d="M33.0413 19.0289C33.5982 19.5417 33.8767 20.2495 33.8767 21.1522V24.0411C33.8767 24.9367 33.5982 25.6445 33.0413 26.1645C32.778 26.4056 32.4529 26.5734 32.1 26.6502C31.6921 26.7381 31.2758 26.7835 30.858 26.7856H27.3046C27.3768 26.7873 27.4486 26.7748 27.5156 26.7487C27.5826 26.7226 27.6435 26.6836 27.6945 26.634C27.7456 26.5843 27.7857 26.5251 27.8125 26.4599C27.8393 26.3947 27.8522 26.3249 27.8504 26.2547V19.7222C27.8499 19.5357 27.8898 19.3511 27.9674 19.1806C28.0426 19.0142 28.149 18.863 28.2812 18.7346C28.4131 18.6064 28.5686 18.5035 28.7397 18.4313C28.9151 18.3556 29.1049 18.3169 29.2967 18.3175H30.8636C31.2828 18.3237 31.6992 18.3844 32.1019 18.4981C32.4524 18.6033 32.7737 18.7848 33.0413 19.0289ZM32.7275 21.1522C32.7369 20.8523 32.6878 20.5533 32.5827 20.2711C32.4952 20.0534 32.3574 19.8582 32.1798 19.7006C32.0082 19.5539 31.8054 19.4459 31.5858 19.3846C31.3435 19.3184 31.0944 19.2784 30.8432 19.2654H29.5436C29.4708 19.2641 29.3986 19.2775 29.3314 19.3049C29.2643 19.3323 29.2038 19.3729 29.1537 19.4243C29.0508 19.5271 28.9941 19.6654 28.9959 19.8089V25.3086C28.9928 25.4413 29.0411 25.5702 29.1314 25.6697C29.2133 25.7694 29.3318 25.8341 29.4619 25.8503H30.8487C31.0992 25.8451 31.3484 25.8124 31.5913 25.7528C31.8087 25.701 32.0116 25.6029 32.1854 25.4657C32.3635 25.3202 32.5019 25.1341 32.5883 24.924C32.694 24.6458 32.7432 24.3502 32.7331 24.0538L32.7275 21.1522Z" fill="white"/>
</g>
<defs>
<filter id="filter0_d_64_329" x="0.595703" y="0.402771" width="44.2504" height="45.2107" filterUnits="userSpaceOnUse" color-interpolation-filters="sRGB">
<feFlood flood-opacity="0" result="BackgroundImageFix"/>
<feColorMatrix in="SourceAlpha" type="matrix" values="0 0 0 0 0 0 0 0 0 0 0 0 0 0 0 0 0 0 127 0" result="hardAlpha"/>
<feOffset dy="4"/>
<feGaussianBlur stdDeviation="2"/>
<feComposite in2="hardAlpha" operator="out"/>
<feColorMatrix type="matrix" values="0 0 0 0 0 0 0 0 0 0 0 0 0 0 0 0 0 0 0.25 0"/>
<feBlend mode="normal" in2="BackgroundImageFix" result="effect1_dropShadow_64_329"/>
<feBlend mode="normal" in="SourceGraphic" in2="effect1_dropShadow_64_329" result="shape"/>
</filter>
</defs>
</svg>
