<svg width="42" height="44" viewBox="0 0 42 44" fill="none" xmlns="http://www.w3.org/2000/svg">
<g filter="url(#filter0_d_64_329)">
<path d="M21.7917 0.191228C19.2692 0.189187 16.7815 0.780327 14.5296 1.91692C12.1878 3.03142 10.1509 4.69653 8.59296 6.76985C7.03501 8.84318 6.00244 11.263 5.58356 13.8224C5.16468 16.3818 5.37194 19.0045 6.18764 21.4663C7.00333 23.9281 8.40317 26.1557 10.2674 27.9586L4.03827 33.2433L6.76396 35.9707L12.2917 29.6201C14.9742 31.4865 18.1644 32.4856 21.4324 32.4829H21.5904H21.7917C26.0739 32.4829 30.1806 30.7818 33.2086 27.7539C36.2365 24.726 37.9376 20.6192 37.9376 16.3371C37.9376 12.0549 36.2365 7.94817 33.2086 4.92023C30.1806 1.8923 26.0739 0.191228 21.7917 0.191228ZM6.43931 34.2086C6.27251 34.2083 6.10955 34.1585 5.97102 34.0656C5.8325 33.9726 5.72462 33.8407 5.66103 33.6865C5.59743 33.5323 5.58097 33.3627 5.61372 33.1992C5.64647 33.0356 5.72697 32.8854 5.84504 32.7676C5.96311 32.6498 6.11345 32.5696 6.27708 32.5372C6.4407 32.5048 6.61026 32.5216 6.76434 32.5855C6.91841 32.6494 7.05008 32.7575 7.14272 32.8963C7.23536 33.035 7.2848 33.198 7.2848 33.3648C7.28434 33.5888 7.19506 33.8034 7.03655 33.9616C6.87804 34.1198 6.66325 34.2086 6.43931 34.2086Z" fill="url(#paint0_linear_64_329)"/>
<path d="M9.28821 8.90998H9.79342C9.92745 8.90928 10.0578 8.95394 10.1632 9.03672C10.2718 9.11936 10.3504 9.23518 10.3872 9.36658L11.6024 13.6635C11.6146 13.7127 11.6442 13.7559 11.6858 13.785C11.7239 13.8121 11.7692 13.8272 11.816 13.8284C11.8618 13.8278 11.9062 13.8126 11.9427 13.785C11.9833 13.7538 12.014 13.7116 12.0313 13.6635L13.3333 9.0072C13.3407 8.97943 13.357 8.95488 13.3798 8.93735C13.4026 8.91983 13.4305 8.91033 13.4592 8.91033C13.4879 8.91033 13.5159 8.91983 13.5386 8.93735C13.5614 8.95488 13.5777 8.97943 13.5851 9.0072C13.6111 9.10443 13.6511 9.24331 13.7031 9.42561C13.7552 9.6079 13.8125 9.81623 13.8767 10.0523C13.941 10.2885 14.0122 10.5419 14.0868 10.8145C14.1615 11.0871 14.2379 11.3562 14.3142 11.6218C14.489 12.2503 14.6806 12.9308 14.8889 13.6635C14.8997 13.7128 14.9289 13.7563 14.9705 13.785C15.0092 13.8122 15.0551 13.8273 15.1024 13.8284C15.1492 13.8272 15.1946 13.8121 15.2327 13.785C15.2748 13.7565 15.3046 13.713 15.316 13.6635L16.5313 9.35616C16.5694 9.23245 16.6453 9.12378 16.7483 9.0454C16.854 8.96073 16.9861 8.91587 17.1215 8.91866H17.9184C17.8288 8.93071 17.7445 8.96805 17.6754 9.0263C17.6046 9.08322 17.5536 9.16097 17.5295 9.24852L15.5868 16.1409L15.566 16.2086H15.0712C14.9464 16.2089 14.8248 16.1693 14.724 16.0957C14.6235 16.0245 14.5515 15.9199 14.5208 15.8006L13.5677 12.4169L13.4601 12.028L13.3438 12.4169L12.3021 16.1409L12.283 16.2086H11.7761C11.651 16.2105 11.5289 16.1708 11.4288 16.0957C11.3297 16.0239 11.259 15.9194 11.2292 15.8006L9.28821 8.90998Z" fill="white"/>
<path d="M20.0556 8.71901V10.3805C20.054 10.4482 20.0666 10.5154 20.0927 10.5779C20.1187 10.6404 20.1575 10.6968 20.2066 10.7433C20.2552 10.7915 20.313 10.8294 20.3765 10.8548C20.44 10.8801 20.508 10.8924 20.5764 10.8909H22.2483C22.386 10.8887 22.519 10.9411 22.6181 11.0367C22.6674 11.0836 22.7063 11.1402 22.7323 11.203C22.7583 11.2658 22.7709 11.3334 22.7691 11.4013V11.8023H18.4584C18.5961 11.8045 18.729 11.7521 18.8282 11.6565C18.8776 11.6097 18.9167 11.5531 18.943 11.4903C18.9693 11.4276 18.9822 11.36 18.9809 11.2919V5.01589C18.9796 4.83662 19.0163 4.6591 19.0886 4.49506C19.2306 4.1725 19.4882 3.91483 19.8108 3.77283C19.9748 3.70012 20.1523 3.66285 20.3316 3.66346H22.2414C22.3098 3.66193 22.3778 3.6742 22.4413 3.69956C22.5048 3.72492 22.5626 3.76283 22.6112 3.81103C22.6603 3.8576 22.6991 3.91395 22.7251 3.97644C22.7511 4.03894 22.7638 4.1062 22.7622 4.17387V4.57492H20.5764C20.4385 4.57319 20.3055 4.62626 20.2066 4.72249C20.1575 4.76905 20.1187 4.8254 20.0927 4.8879C20.0666 4.9504 20.054 5.01766 20.0556 5.08533V7.34228C20.1477 7.32023 20.2421 7.30916 20.3368 7.30929H22.2153V7.71207C22.2169 7.77975 22.2043 7.847 22.1783 7.9095C22.1522 7.972 22.1134 8.02835 22.0643 8.07492C22.0157 8.12312 21.958 8.16103 21.8944 8.18638C21.8309 8.21174 21.7629 8.22402 21.6945 8.22249H20.5764C20.4387 8.2203 20.3058 8.27273 20.2066 8.36832C20.1592 8.41361 20.1213 8.46802 20.0954 8.52828C20.0694 8.58853 20.0559 8.65341 20.0556 8.71901Z" fill="white"/>
<path d="M28.7952 12.4204V12.8214H26.8299C26.6507 12.8217 26.4734 12.7851 26.3091 12.7138C26.1493 12.6433 26.0039 12.5438 25.8803 12.4204C25.7572 12.2965 25.6578 12.1512 25.5868 11.9916C25.5148 11.8275 25.4781 11.65 25.4792 11.4707V4.67734H26.0348C26.103 4.67473 26.171 4.68607 26.2347 4.71066C26.2984 4.73525 26.3564 4.77258 26.4051 4.82036C26.4539 4.86814 26.4924 4.92537 26.5182 4.98854C26.5441 5.05171 26.5568 5.1195 26.5556 5.18776V11.3996C26.5539 11.4674 26.5667 11.5348 26.593 11.5974C26.6193 11.66 26.6587 11.7162 26.7084 11.7624C26.7566 11.8106 26.8141 11.8485 26.8773 11.8738C26.9406 11.8992 27.0083 11.9115 27.0764 11.91H28.2917C28.3591 11.9088 28.426 11.9212 28.4884 11.9464C28.5509 11.9717 28.6076 12.0092 28.6552 12.0569C28.7029 12.1045 28.7404 12.1612 28.7657 12.2237C28.7909 12.2861 28.8033 12.353 28.8021 12.4204H28.7952Z" fill="white"/>
<path d="M34.1649 16.2884V16.6843H32.1997C32.0203 16.6852 31.8427 16.6479 31.6788 16.5749C31.3554 16.435 31.0972 16.1775 30.9566 15.8544C30.884 15.6904 30.8467 15.5129 30.8472 15.3336V8.54538H31.4115C31.4774 8.54607 31.5426 8.55993 31.6031 8.58617C31.6636 8.61241 31.7183 8.65048 31.7639 8.69816C31.8116 8.74594 31.849 8.80288 31.8741 8.86553C31.8992 8.92819 31.9113 8.99527 31.9097 9.06274V15.2745C31.908 15.3424 31.9208 15.4098 31.9471 15.4724C31.9735 15.5349 32.0128 15.5912 32.0625 15.6374C32.1609 15.7332 32.2932 15.7862 32.4306 15.785H33.6458C33.7132 15.7838 33.7801 15.7962 33.8426 15.8214C33.905 15.8467 33.9617 15.8842 34.0094 15.9318C34.057 15.9795 34.0946 16.0362 34.1198 16.0987C34.145 16.1611 34.1574 16.228 34.1563 16.2954L34.1649 16.2884Z" fill="white"/>
<path d="M18.2119 18.3527V18.7433H15.5088C15.4411 18.7416 15.3738 18.7542 15.3113 18.7802C15.2487 18.8062 15.1924 18.8451 15.1459 18.8943C15.0497 18.9932 14.9966 19.1262 14.9983 19.2641V20.9586L15.1285 20.9412C15.1725 20.9412 15.2194 20.9412 15.2692 20.9412H17.1476V21.344C17.1488 21.4114 17.1364 21.4783 17.1112 21.5407C17.086 21.6032 17.0484 21.6599 17.0008 21.7075C16.9531 21.7552 16.8964 21.7927 16.8339 21.818C16.7715 21.8432 16.7046 21.8556 16.6372 21.8544H15.5088C15.4414 21.8532 15.3745 21.8656 15.312 21.8909C15.2496 21.9161 15.1928 21.9537 15.1452 22.0013C15.0976 22.0489 15.06 22.1057 15.0348 22.1681C15.0096 22.2306 14.9972 22.2975 14.9983 22.3648V25.4707C15.0001 25.538 14.988 25.6048 14.9629 25.6672C14.9379 25.7296 14.9003 25.7862 14.8525 25.8336C14.8059 25.8815 14.75 25.9193 14.6881 25.9447C14.6263 25.9701 14.5599 25.9825 14.4931 25.9812H13.4133C13.4806 25.9825 13.5475 25.9702 13.6099 25.9448C13.6723 25.9194 13.7289 25.8816 13.7761 25.8336C13.8245 25.7866 13.8625 25.7301 13.8879 25.6676C13.9133 25.6052 13.9255 25.5381 13.9237 25.4707V19.1877C13.9225 19.0085 13.9592 18.831 14.0313 18.6669C14.1705 18.3454 14.4251 18.0878 14.7449 17.9447C14.9088 17.8722 15.0864 17.8355 15.2657 17.8371H17.6963C17.8344 17.8371 17.9669 17.8919 18.0645 17.9896C18.1622 18.0873 18.2171 18.2198 18.2171 18.3579L18.2119 18.3527Z" fill="white"/>
<path d="M20.5156 26.0975V27.7589C20.514 27.8268 20.5267 27.8942 20.553 27.9568C20.5794 28.0193 20.6187 28.0756 20.6684 28.1218C20.7166 28.1699 20.7741 28.2078 20.8374 28.2332C20.9006 28.2585 20.9683 28.2708 21.0365 28.2694H22.7084C22.846 28.2672 22.979 28.3196 23.0781 28.4152C23.1276 28.462 23.1667 28.5186 23.193 28.5814C23.2193 28.6441 23.2322 28.7117 23.2309 28.7798V29.1843H18.9167C18.9847 29.1857 19.0522 29.1735 19.1154 29.1485C19.1786 29.1235 19.2362 29.086 19.2847 29.0385C19.3358 28.9907 19.3758 28.9324 19.4022 28.8677C19.4286 28.803 19.4406 28.7333 19.4375 28.6635V22.3944C19.437 22.2152 19.4736 22.0378 19.5452 21.8735C19.6872 21.551 19.9448 21.2933 20.2674 21.1513C20.4314 21.0787 20.6089 21.0414 20.7882 21.0419H22.6979C22.7663 21.0403 22.8344 21.0525 22.8979 21.0779C22.9615 21.1032 23.0192 21.1412 23.0677 21.1895C23.1171 21.236 23.1562 21.2923 23.1825 21.3548C23.2088 21.4172 23.2218 21.4845 23.2205 21.5523V21.9551H21.0365C20.9685 21.9537 20.9009 21.9659 20.8377 21.9909C20.7745 22.0159 20.717 22.0534 20.6684 22.1009C20.6187 22.1472 20.5794 22.2034 20.553 22.266C20.5267 22.3285 20.514 22.3959 20.5156 22.4638V24.7207C20.6083 24.6986 20.7033 24.6875 20.7986 24.6878H22.6771V25.0905C22.6788 25.1584 22.666 25.2258 22.6397 25.2884C22.6134 25.3509 22.574 25.4072 22.5243 25.4534C22.4758 25.5017 22.4181 25.5396 22.3545 25.565C22.291 25.5904 22.2229 25.6026 22.1545 25.6009H21.0365C20.9685 25.5995 20.9009 25.6117 20.8377 25.6367C20.7745 25.6618 20.717 25.6992 20.6684 25.7468C20.6206 25.7919 20.5823 25.8462 20.5561 25.9065C20.5298 25.9667 20.5161 26.0317 20.5156 26.0975Z" fill="white"/>
<path d="M30.639 18.1009C31.1598 18.594 31.4202 19.2745 31.4202 20.1426V22.9204C31.4202 23.7815 31.1598 24.462 30.639 24.962C30.3928 25.1939 30.0888 25.3552 29.7588 25.4291C29.3774 25.5137 28.988 25.5573 28.5973 25.5593H25.2744C25.3419 25.5609 25.409 25.5489 25.4717 25.5238C25.5344 25.4988 25.5913 25.4612 25.639 25.4135C25.6868 25.3657 25.7243 25.3088 25.7494 25.2461C25.7744 25.1835 25.7865 25.1163 25.7848 25.0489V18.7676C25.7843 18.5882 25.8216 18.4108 25.8942 18.2468C25.9645 18.0868 26.064 17.9414 26.1876 17.8179C26.311 17.6947 26.4564 17.5957 26.6164 17.5263C26.7804 17.4536 26.9579 17.4163 27.1373 17.4169H28.6025C28.9946 17.4229 29.384 17.4812 29.7605 17.5905C30.0883 17.6917 30.3888 17.8662 30.639 18.1009ZM30.3456 20.1426C30.3544 19.8542 30.3084 19.5667 30.2102 19.2954C30.1283 19.086 29.9994 18.8983 29.8334 18.7468C29.673 18.6057 29.4832 18.5019 29.2779 18.443C29.0513 18.3793 28.8184 18.3409 28.5834 18.3284H27.3682C27.3001 18.3271 27.2325 18.34 27.1698 18.3663C27.107 18.3926 27.0504 18.4317 27.0036 18.4811C26.9074 18.58 26.8543 18.713 26.856 18.8509V24.1391C26.8531 24.2667 26.8983 24.3907 26.9827 24.4864C27.0593 24.5822 27.1701 24.6444 27.2918 24.66H28.5887C28.8229 24.6549 29.0559 24.6235 29.2831 24.5662C29.4864 24.5164 29.6761 24.4221 29.8387 24.2902C30.0052 24.1502 30.1346 23.9713 30.2154 23.7693C30.3143 23.5018 30.3603 23.2176 30.3508 22.9325L30.3456 20.1426Z" fill="white"/>
</g>
<defs>
<filter id="filter0_d_64_329" x="0.038269" y="0.191223" width="41.8993" height="43.7795" filterUnits="userSpaceOnUse" color-interpolation-filters="sRGB">
<feFlood flood-opacity="0" result="BackgroundImageFix"/>
<feColorMatrix in="SourceAlpha" type="matrix" values="0 0 0 0 0 0 0 0 0 0 0 0 0 0 0 0 0 0 127 0" result="hardAlpha"/>
<feOffset dy="4"/>
<feGaussianBlur stdDeviation="2"/>
<feComposite in2="hardAlpha" operator="out"/>
<feColorMatrix type="matrix" values="0 0 0 0 0 0 0 0 0 0 0 0 0 0 0 0 0 0 0.25 0"/>
<feBlend mode="normal" in2="BackgroundImageFix" result="effect1_dropShadow_64_329"/>
<feBlend mode="normal" in="SourceGraphic" in2="effect1_dropShadow_64_329" result="shape"/>
</filter>
<linearGradient id="paint0_linear_64_329" x1="20.9879" y1="0.191223" x2="20.9879" y2="35.9707" gradientUnits="userSpaceOnUse">
<stop stop-color="#B64B29"/>
<stop offset="1" stop-color="#EC9556"/>
</linearGradient>
</defs>
</svg>
