<svg width="25" height="25" viewBox="0 0 25 25" fill="none" xmlns="http://www.w3.org/2000/svg">
<path fill-rule="evenodd" clip-rule="evenodd" d="M17.8134 4.54935H6.61338C5.2879 4.54935 4.21338 5.68042 4.21338 7.07566V19.7072C4.21388 20.011 4.36979 20.291 4.62138 20.4399C4.74094 20.5112 4.87595 20.5489 5.01338 20.5493C5.15697 20.5493 5.29789 20.5086 5.42138 20.4315L9.01338 18.1409C9.14615 18.0577 9.29897 18.0168 9.45338 18.023H17.8134C19.1389 18.023 20.2134 16.892 20.2134 15.4967V7.07566C20.2134 5.68042 19.1389 4.54935 17.8134 4.54935ZM18.6134 15.4967C18.6134 15.9618 18.2552 16.3388 17.8134 16.3388H9.45338C9.01644 16.3385 8.58769 16.4637 8.21338 16.7009L5.81338 18.2167V7.07566C5.81338 6.61058 6.17155 6.23356 6.61338 6.23356H17.8134C18.2552 6.23356 18.6134 6.61058 18.6134 7.07566V15.4967ZM12.2134 12.1283C12.6552 12.1283 13.0134 11.7513 13.0134 11.2862C13.0134 10.8211 12.6552 10.4441 12.2134 10.4441C11.7716 10.4441 11.4134 10.8211 11.4134 11.2862C11.4134 11.7513 11.7716 12.1283 12.2134 12.1283ZM15.4134 12.1283C15.8552 12.1283 16.2134 11.7513 16.2134 11.2862C16.2134 10.8211 15.8552 10.4441 15.4134 10.4441C14.9716 10.4441 14.6134 10.8211 14.6134 11.2862C14.6134 11.7513 14.9716 12.1283 15.4134 12.1283ZM9.01338 12.1283C9.45521 12.1283 9.81338 11.7513 9.81338 11.2862C9.81338 10.8211 9.45521 10.4441 9.01338 10.4441C8.57155 10.4441 8.21338 10.8211 8.21338 11.2862C8.21338 11.7513 8.57155 12.1283 9.01338 12.1283Z" fill="#6B7280"/>
</svg>
