<svg width="22" height="23" viewBox="0 0 22 23" fill="none" xmlns="http://www.w3.org/2000/svg">
<path d="M20.8795 14.707L18.722 12.6434V9.90984C18.7196 8.02075 17.9848 6.19963 16.6599 4.79864C15.335 3.39764 13.514 2.51629 11.549 2.325V0.762299H9.95502V2.325C7.99007 2.51629 6.16907 3.39764 4.84414 4.79864C3.51921 6.19963 2.78447 8.02075 2.782 9.90984V12.6434L0.624513 14.707C0.475036 14.8499 0.391036 15.0437 0.390991 15.2459V17.5328C0.390991 17.735 0.474961 17.9289 0.624428 18.0718C0.773895 18.2148 0.976615 18.2951 1.18799 18.2951H6.76701V19.0574C6.76701 20.0682 7.18686 21.0377 7.93419 21.7525C8.68153 22.4673 9.69513 22.8689 10.752 22.8689C11.8089 22.8689 12.8225 22.4673 13.5699 21.7525C14.3172 21.0377 14.737 20.0682 14.737 19.0574V18.2951H20.3161C20.5274 18.2951 20.7302 18.2148 20.8796 18.0718C21.0291 17.9289 21.1131 17.735 21.1131 17.5328V15.2459C21.113 15.0437 21.029 14.8499 20.8795 14.707ZM13.143 19.0574C13.143 19.6639 12.8911 20.2456 12.4427 20.6745C11.9943 21.1033 11.3862 21.3443 10.752 21.3443C10.1179 21.3443 9.50973 21.1033 9.06133 20.6745C8.61292 20.2456 8.36102 19.6639 8.36102 19.0574V18.2951H13.143V19.0574Z" fill="#242424" fill-opacity="0.65"/>
</svg>
