<svg width="26" height="25" viewBox="0 0 26 25" fill="none" xmlns="http://www.w3.org/2000/svg">
<g clip-path="url(#clip0_70_303)">
<path d="M22.9313 14.9201L20.7738 12.8565V10.1229C20.7713 8.23385 20.0366 6.41274 18.7117 5.01174C17.3867 3.61075 15.5657 2.72939 13.6008 2.53811V0.975403H12.0068V2.53811C10.0418 2.72939 8.22083 3.61075 6.8959 5.01174C5.57097 6.41274 4.83623 8.23385 4.83376 10.1229V12.8565L2.67627 14.9201C2.52679 15.063 2.44279 15.2569 2.44275 15.459V17.7459C2.44275 17.9481 2.52672 18.142 2.67619 18.2849C2.82565 18.4279 3.02837 18.5082 3.23975 18.5082H8.81877V19.2705C8.81877 20.2814 9.23862 21.2508 9.98595 21.9656C10.7333 22.6804 11.7469 23.082 12.8038 23.082C13.8607 23.082 14.8743 22.6804 15.6216 21.9656C16.3689 21.2508 16.7888 20.2814 16.7888 19.2705V18.5082H22.3678C22.5792 18.5082 22.7819 18.4279 22.9314 18.2849C23.0808 18.142 23.1648 17.9481 23.1648 17.7459V15.459C23.1648 15.2569 23.0808 15.063 22.9313 14.9201ZM15.1948 19.2705C15.1948 19.877 14.9429 20.4587 14.4945 20.8876C14.0461 21.3164 13.4379 21.5574 12.8038 21.5574C12.1696 21.5574 11.5615 21.3164 11.1131 20.8876C10.6647 20.4587 10.4128 19.877 10.4128 19.2705V18.5082H15.1948V19.2705Z" fill="#242424" fill-opacity="0.65"/>
<path d="M24.145 5.44026C24.145 7.54911 22.351 9.29623 20.0907 9.29623C17.8303 9.29623 16.0364 7.54911 16.0364 5.44026C16.0364 3.33141 17.8303 1.58429 20.0907 1.58429C22.351 1.58429 24.145 3.33141 24.145 5.44026Z" fill="#EC9556" stroke="#F8F8F8"/>
</g>
<defs>
<clipPath id="clip0_70_303">
<rect width="25.5041" height="24.3934" fill="white" transform="translate(0.0517578 0.213104)"/>
</clipPath>
</defs>
</svg>
