<svg width="17" height="17" viewBox="0 0 17 17" fill="none" xmlns="http://www.w3.org/2000/svg">
<path fill-rule="evenodd" clip-rule="evenodd" d="M7.67073 1.2439C4.12129 1.2439 1.2439 4.12129 1.2439 7.67073C1.2439 11.2202 4.12129 14.0976 7.67073 14.0976C11.2202 14.0976 14.0976 11.2202 14.0976 7.67073C14.0976 4.12129 11.2202 1.2439 7.67073 1.2439ZM0 7.67073C0 3.4343 3.4343 0 7.67073 0C11.9072 0 15.3415 3.4343 15.3415 7.67073C15.3415 11.9072 11.9072 15.3415 7.67073 15.3415C3.4343 15.3415 0 11.9072 0 7.67073Z" fill="#292C2E"/>
<path fill-rule="evenodd" clip-rule="evenodd" d="M12.2066 12.2065C12.4495 11.9637 12.8433 11.9637 13.0862 12.2065L16.8179 15.9383C17.0607 16.1811 17.0607 16.5749 16.8179 16.8178C16.575 17.0607 16.1812 17.0607 15.9383 16.8178L12.2066 13.0861C11.9637 12.8432 11.9637 12.4494 12.2066 12.2065Z" fill="#292C2E"/>
</svg>
