<svg width="26" height="25" viewBox="0 0 26 25" fill="none" xmlns="http://www.w3.org/2000/svg">
<path d="M3.68396 3.2623H5.8093L6.23437 5.29509M7.93464 13.4262H18.5613L22.812 5.29509H6.23437M7.93464 13.4262L6.23437 5.29509M7.93464 13.4262L5.49805 15.7567C4.82861 16.397 5.30273 17.4918 6.24947 17.4918H18.5613M18.5613 17.4918C17.3875 17.4918 16.436 18.4019 16.436 19.5246C16.436 20.6473 17.3875 21.5574 18.5613 21.5574C19.7351 21.5574 20.6867 20.6473 20.6867 19.5246C20.6867 18.4019 19.7351 17.4918 18.5613 17.4918ZM10.06 19.5246C10.06 20.6473 9.10843 21.5574 7.93464 21.5574C6.76085 21.5574 5.8093 20.6473 5.8093 19.5246C5.8093 18.4019 6.76085 17.4918 7.93464 17.4918C9.10843 17.4918 10.06 18.4019 10.06 19.5246Z" stroke="#6B7280" stroke-width="2" stroke-linecap="round" stroke-linejoin="round"/>
</svg>
