<svg width="25" height="25" viewBox="0 0 25 25" fill="none" xmlns="http://www.w3.org/2000/svg">
<path d="M21.2133 10.6536V11.6924C21.787 11.6924 22.2521 11.2273 22.2521 10.6536H21.2133ZM21.2133 14.6536H22.2521C22.2521 14.0799 21.787 13.6149 21.2133 13.6149V14.6536ZM3.21332 14.6536L3.2133 13.6149C2.63961 13.6149 2.17456 14.0799 2.17456 14.6536H3.21332ZM3.21332 10.6536H2.17456C2.17456 11.2273 2.63961 11.6924 3.2133 11.6924L3.21332 10.6536ZM5.29084 4.61489C3.56976 4.61489 2.17456 6.01009 2.17456 7.73117H4.25208C4.25208 7.15748 4.71715 6.69241 5.29084 6.69241V4.61489ZM19.1358 4.61489H5.29084V6.69241H19.1358V4.61489ZM22.2521 7.73117C22.2521 6.0101 20.8569 4.61489 19.1358 4.61489V6.69241C19.7095 6.69241 20.1746 7.15748 20.1746 7.73117H22.2521ZM22.2521 10.6536V7.73117H20.1746V10.6536H22.2521ZM21.2133 11.6924H21.2133V9.61487H21.2133V11.6924ZM20.252 12.6536C20.252 12.1228 20.6824 11.6924 21.2133 11.6924V9.61487C19.535 9.61487 18.1745 10.9754 18.1745 12.6536H20.252ZM21.2133 13.6149C20.6824 13.6149 20.252 13.1845 20.252 12.6536H18.1745C18.1745 14.3319 19.535 15.6924 21.2133 15.6924V13.6149ZM21.2133 13.6149H21.2133V15.6924H21.2133V13.6149ZM22.2521 17.5761V14.6536H20.1746V17.5761H22.2521ZM19.1358 20.6924C20.8569 20.6924 22.2521 19.2972 22.2521 17.5761H20.1746C20.1746 18.1498 19.7095 18.6149 19.1358 18.6149V20.6924ZM5.29084 20.6924H19.1358V18.6149H5.29084V20.6924ZM2.17456 17.5761C2.17456 19.2972 3.56976 20.6924 5.29084 20.6924V18.6149C4.71715 18.6149 4.25208 18.1498 4.25208 17.5761H2.17456ZM2.17456 14.6536V17.5761H4.25208V14.6536H2.17456ZM4.17451 12.6536C4.17451 13.1845 3.74416 13.6149 3.2133 13.6149L3.21334 15.6924C4.89157 15.6924 6.25203 14.3319 6.25203 12.6536H4.17451ZM3.2133 11.6924C3.74416 11.6924 4.17451 12.1228 4.17451 12.6536H6.25203C6.25203 10.9754 4.89157 9.61491 3.21334 9.61487L3.2133 11.6924ZM2.17456 7.73117V10.6536H4.25208V7.73117H2.17456Z" fill="#6B7280"/>
<path d="M15.2134 5.65364V7.65364" stroke="#6B7280" stroke-width="2.07752" stroke-linecap="round"/>
<path d="M15.2134 11.6536V13.6536" stroke="#6B7280" stroke-width="2.07752" stroke-linecap="round" stroke-linejoin="round"/>
<path d="M15.2134 17.6536V19.6536" stroke="#6B7280" stroke-width="2.07752" stroke-linecap="round" stroke-linejoin="round"/>
</svg>
