<svg width="299" height="108" viewBox="0 0 299 108" fill="none" xmlns="http://www.w3.org/2000/svg">
<path d="M248.222 0.00511541C238.044 -0.136243 228.056 2.65502 219.55 8.01777C211.044 13.3805 204.412 21.068 200.511 30.0855C196.611 39.103 195.622 49.0357 197.672 58.5983C199.722 68.1609 204.717 76.9135 212.01 83.7236L192.38 99.664L200.952 107.885L218.331 88.7442C226.785 94.3707 236.833 97.3759 247.123 97.3545H248.248C261.709 97.3545 274.617 92.2263 284.135 83.098C293.653 73.9697 299 61.5891 299 48.6798C299 35.7705 293.653 23.3899 284.135 14.2616C274.617 5.13333 261.709 0.00511541 248.248 0.00511541M199.983 102.576C199.466 102.576 198.96 102.429 198.529 102.153C198.099 101.877 197.763 101.485 197.565 101.026C197.367 100.568 197.315 100.063 197.416 99.5759C197.517 99.0889 197.766 98.6416 198.133 98.2906C198.499 97.9395 198.965 97.7004 199.473 97.6036C199.98 97.5067 200.507 97.5564 200.985 97.7464C201.463 97.9364 201.872 98.2582 202.16 98.671C202.447 99.0838 202.601 99.5691 202.601 100.066C202.601 100.731 202.325 101.37 201.834 101.841C201.343 102.311 200.678 102.576 199.983 102.576Z" fill="#B64B29"/>
<path d="M287.156 34.823C290.501 43.3201 290.692 52.6631 287.696 61.2792C284.7 69.8953 278.7 77.2584 270.707 82.1292C262.714 86.9999 253.215 89.0809 243.81 88.0218C234.404 86.9627 225.666 82.8281 219.067 76.3142C212.467 69.8002 208.409 61.3045 207.576 52.2572C206.742 43.2099 209.184 34.1633 214.49 26.6403C219.796 19.1174 227.643 13.5773 236.709 10.9528C245.775 8.32819 255.507 8.77934 264.267 12.2303" stroke="white" stroke-width="1.79" stroke-miterlimit="10" stroke-linecap="round"/>
<path d="M0 37.4587H2.44728C3.09566 37.4521 3.72741 37.6555 4.24021 38.0361C4.76733 38.4241 5.14857 38.966 5.32643 39.58L11.2156 59.5494C11.2731 59.7761 11.4121 59.9761 11.6082 60.1142C11.7947 60.2439 12.0191 60.3142 12.2495 60.315C12.4722 60.316 12.6888 60.2453 12.8646 60.1142C13.0567 59.9674 13.2018 59.7716 13.2834 59.5494L19.6306 37.9106C19.6559 37.7777 19.7312 37.6583 19.8421 37.5751C19.9531 37.4918 20.092 37.4504 20.2326 37.4587C20.3748 37.45 20.5154 37.4909 20.6285 37.574C20.7416 37.6571 20.8195 37.7767 20.8477 37.9106C20.9786 38.3625 21.1618 39.0026 21.4104 39.8435C21.6591 40.6845 21.947 41.6635 22.2611 42.768L23.2819 46.3076C23.6352 47.5627 24.0017 48.8179 24.3812 50.073C25.2537 52.9933 26.1828 56.1563 27.1687 59.5619C27.2206 59.791 27.3609 59.9927 27.5613 60.1268C27.7479 60.2565 27.9722 60.3267 28.2026 60.3276C28.4293 60.3285 28.65 60.2579 28.8308 60.1268C29.0344 59.9932 29.1789 59.7919 29.2365 59.5619L35.1257 39.5423C35.3049 38.9492 35.6762 38.4262 36.1857 38.0487C36.7051 37.6618 37.3473 37.4579 38.0048 37.4713H41.8786C41.4451 37.5228 41.0363 37.6927 40.7007 37.9608C40.3527 38.2246 40.1045 38.5906 39.994 39.0026L30.5452 70.9838L30.4536 71.3101H28.0456C27.4341 71.3147 26.8374 71.1298 26.3442 70.783C25.8542 70.4513 25.5056 69.961 25.3627 69.4023L20.743 53.6878L20.2195 51.8804L19.6306 53.7255L14.5659 70.9838L14.4743 71.3101H12.0794C11.4753 71.3185 10.8857 71.1329 10.4042 70.783C9.92154 70.4468 9.57847 69.9578 9.43577 69.4023L0 37.4587Z" fill="#B64B29"/>
<path d="M51.3667 58.5077V65.4235C51.362 65.7061 51.4176 65.9866 51.5301 66.2478C51.6427 66.509 51.8097 66.7453 52.0211 66.9423C52.4535 67.3393 53.0323 67.5559 53.6308 67.5447H60.881C61.1786 67.5388 61.4744 67.5901 61.7509 67.6958C62.0274 67.8014 62.279 67.9592 62.4907 68.1598C62.703 68.3534 62.8708 68.5874 62.9835 68.8467C63.0961 69.106 63.1512 69.3851 63.1451 69.6659V71.3478H44.496C45.0922 71.3537 45.6664 71.1325 46.0927 70.7328C46.3103 70.5399 46.4824 70.3045 46.5975 70.0426C46.7126 69.7807 46.768 69.4982 46.7601 69.2141V43.107C46.7146 42.3427 46.8349 41.5777 47.1134 40.8603C47.4348 40.1958 47.8781 39.5921 48.4222 39.078C48.9514 38.5485 49.5824 38.1223 50.2805 37.8228C51.0019 37.5183 51.7826 37.3642 52.5707 37.371H60.8549C61.4534 37.3598 62.0321 37.5764 62.4646 37.9734C62.6759 38.1704 62.843 38.4067 62.9555 38.6679C63.0681 38.9291 63.1237 39.2096 63.1189 39.4922V41.1615H53.657C53.3594 41.1555 53.0636 41.2069 52.7871 41.3125C52.5106 41.4182 52.259 41.576 52.0473 41.7765C51.835 41.9702 51.6672 42.2041 51.5545 42.4635C51.4419 42.7228 51.3868 43.0018 51.3929 43.2827V52.6336C51.7964 52.5452 52.2093 52.5031 52.6231 52.5081H60.7632V54.1774C60.7727 54.4587 60.7191 54.7387 60.6062 54.9985C60.4934 55.2583 60.3238 55.4919 60.1089 55.6836C59.9 55.8844 59.6508 56.0424 59.3763 56.1481C59.1019 56.2538 58.8079 56.305 58.5123 56.2986H53.657C53.3594 56.2926 53.0636 56.344 52.7871 56.4496C52.5106 56.5553 52.259 56.7131 52.0473 56.9136C51.8184 57.1148 51.6387 57.3621 51.5211 57.6376C51.4034 57.9132 51.3507 58.2103 51.3667 58.5077Z" fill="#B64B29"/>
<path d="M82.7495 69.7287V71.4106H74.2167C73.4286 71.4173 72.6479 71.2633 71.9265 70.9587C71.2308 70.6552 70.6005 70.2295 70.0681 69.7036C69.5161 69.196 69.0717 68.5908 68.7594 67.9213C68.4433 67.2334 68.2827 66.4891 68.2883 65.7373V37.4965H70.7356C71.0306 37.4826 71.3254 37.5272 71.6016 37.6276C71.8778 37.728 72.1294 37.8819 72.3406 38.0799C72.5519 38.2778 72.7184 38.5154 72.8295 38.7779C72.9406 39.0403 72.9941 39.3219 72.9865 39.6051V65.4486C72.9811 65.7324 73.0377 66.0142 73.1526 66.2758C73.2676 66.5373 73.4384 66.7729 73.654 66.9674C73.8648 67.1647 74.1147 67.3197 74.3889 67.4231C74.6631 67.5266 74.956 67.5765 75.2506 67.5698H80.4854C80.7779 67.5648 81.0685 67.6161 81.34 67.7207C81.6114 67.8254 81.8582 67.9812 82.0657 68.1791C82.2732 68.3769 82.4371 68.6126 82.5478 68.8724C82.6586 69.1321 82.7138 69.4105 82.7102 69.691L82.7495 69.7287Z" fill="#B64B29"/>
<path d="M102.341 69.7287V71.4106H93.8211C93.033 71.4173 92.2523 71.2633 91.5309 70.9587C90.8333 70.6584 90.2024 70.2323 89.6725 69.7036C89.1256 69.1919 88.6819 68.5876 88.3638 67.9213C88.0518 67.2325 87.8957 66.4882 87.9058 65.7373V37.4965H90.3531C90.645 37.4914 90.935 37.5427 91.2057 37.6475C91.4765 37.7523 91.7224 37.9084 91.9289 38.1064C92.1353 38.3044 92.298 38.5402 92.4073 38.7999C92.5165 39.0596 92.5701 39.3377 92.5648 39.6177V65.4612C92.56 65.7438 92.6156 66.0243 92.7282 66.2855C92.8407 66.5466 93.0078 66.783 93.2191 66.9799C93.6516 67.3769 94.2303 67.5936 94.8288 67.5824H100.064C100.363 67.5703 100.661 67.6172 100.941 67.7203C101.22 67.8234 101.474 67.9804 101.688 68.1816C101.901 68.3829 102.07 68.624 102.182 68.8901C102.294 69.1563 102.348 69.4417 102.341 69.7287Z" fill="#B64B29"/>
<path d="M127.075 39.6051V41.2368H115.297C115.002 41.2307 114.709 41.2834 114.437 41.3914C114.164 41.4994 113.918 41.6605 113.713 41.8644C113.299 42.2791 113.074 42.8342 113.085 43.4082V50.4496L113.648 50.3868H114.263H122.403V52.0562C122.411 52.337 122.36 52.6164 122.252 52.8775C122.144 53.1386 121.982 53.3759 121.775 53.5749C121.567 53.7736 121.32 53.9303 121.048 54.036C120.776 54.1416 120.485 54.1939 120.192 54.1899H115.297C115.004 54.1812 114.712 54.2301 114.44 54.3337C114.168 54.4372 113.92 54.5931 113.713 54.7919C113.506 54.9906 113.343 55.2279 113.235 55.4892C113.127 55.7505 113.076 56.0302 113.085 56.3111V69.2266C113.092 69.5084 113.039 69.7886 112.929 70.0498C112.819 70.3111 112.654 70.5478 112.444 70.7453C112.242 70.9451 112 71.1028 111.732 71.2086C111.464 71.3144 111.176 71.3661 110.887 71.3604H106.201C106.495 71.3644 106.786 71.312 107.058 71.2064C107.33 71.1008 107.577 70.944 107.785 70.7453C107.992 70.5467 108.155 70.3095 108.263 70.0483C108.371 69.7871 108.422 69.5075 108.413 69.2266V43.1195C108.406 42.3636 108.567 41.6149 108.884 40.923C109.199 40.2549 109.643 39.6501 110.193 39.1407C110.718 38.6116 111.344 38.1854 112.038 37.8856C112.755 37.5798 113.531 37.4257 114.315 37.4337H124.785C125.086 37.4269 125.384 37.4783 125.664 37.5847C125.943 37.6911 126.197 37.8504 126.411 38.053C126.625 38.2557 126.794 38.4976 126.908 38.7642C127.022 39.0309 127.079 39.3169 127.075 39.6051Z" fill="#B64B29"/>
<path d="M136.642 58.5076V65.4235C136.637 65.7061 136.693 65.9866 136.805 66.2478C136.918 66.5089 137.085 66.7453 137.296 66.9422C137.729 67.3392 138.308 67.5558 138.906 67.5447H146.156C146.452 67.5375 146.746 67.5884 147.021 67.6941C147.295 67.7999 147.544 67.9583 147.753 68.1597C147.969 68.3507 148.141 68.5839 148.256 68.8437C148.371 69.1034 148.427 69.3837 148.42 69.6659V71.3478H129.719C130.315 71.3536 130.889 71.1325 131.316 70.7328C131.531 70.5392 131.702 70.3034 131.814 70.0414C131.927 69.7795 131.98 69.4973 131.97 69.214V43.1069C131.963 42.351 132.123 41.6023 132.441 40.9104C132.758 40.2432 133.201 39.6387 133.75 39.1281C134.279 38.5987 134.91 38.1725 135.608 37.8729C136.325 37.5698 137.101 37.4158 137.885 37.4211H146.182C146.477 37.4145 146.77 37.4643 147.044 37.5678C147.318 37.6713 147.568 37.8262 147.779 38.0236C147.995 38.218 148.165 38.4536 148.28 38.7152C148.395 38.9767 148.452 39.2585 148.447 39.5423V41.2116H138.932C138.635 41.2057 138.339 41.257 138.062 41.3627C137.786 41.4683 137.534 41.6261 137.323 41.8267C137.11 42.0203 136.942 42.2543 136.83 42.5136C136.717 42.7729 136.662 43.052 136.668 43.3328V52.6837C137.067 52.5964 137.476 52.5542 137.885 52.5582H146.038V54.2275C146.045 54.5084 145.99 54.7874 145.877 55.0468C145.764 55.3061 145.596 55.5401 145.384 55.7337C145.172 55.9343 144.921 56.0921 144.644 56.1977C144.368 56.3034 144.072 56.3547 143.774 56.3487H138.932C138.635 56.3428 138.339 56.3941 138.062 56.4998C137.786 56.6054 137.534 56.7632 137.323 56.9638C137.101 57.1594 136.925 57.3985 136.807 57.6648C136.69 57.9312 136.634 58.2186 136.642 58.5076Z" fill="#B64B29"/>
<path d="M175.602 40.2954C176.759 41.4031 177.659 42.7326 178.243 44.1969C178.827 45.6612 179.082 47.2274 178.992 48.7928V60.3653C179.077 61.9301 178.819 63.4947 178.235 64.9582C177.651 66.4217 176.754 67.7518 175.602 68.8626C174.533 69.8258 173.213 70.4937 171.781 70.7956C170.126 71.151 168.437 71.3361 166.742 71.3478H152.346C152.638 71.353 152.928 71.3012 153.198 71.1954C153.468 71.0897 153.712 70.9323 153.917 70.7328C154.128 70.5366 154.295 70.3001 154.405 70.0386C154.516 69.777 154.568 69.4961 154.558 69.2141V43.107C154.551 42.3511 154.712 41.6023 155.029 40.9105C155.643 39.5696 156.759 38.4989 158.157 37.9107C158.878 37.6061 159.659 37.4521 160.447 37.4588H166.808C168.506 37.4826 170.193 37.7318 171.82 38.1994C173.229 38.6163 174.522 39.3328 175.602 40.2954ZM174.293 48.7928C174.331 47.5921 174.131 46.3954 173.705 45.2658C173.364 44.4149 172.821 43.6519 172.119 43.0375C171.417 42.4231 170.575 41.9741 169.661 41.7263C168.688 41.4578 167.687 41.2977 166.677 41.2494H161.442C161.147 41.2433 160.854 41.296 160.582 41.404C160.309 41.512 160.063 41.673 159.858 41.8769C159.649 42.08 159.485 42.3213 159.375 42.5865C159.264 42.8517 159.211 43.1354 159.217 43.4208V65.4235C159.21 65.9455 159.406 66.4512 159.767 66.8418C160.091 67.2309 160.56 67.4832 161.076 67.5447H166.69C167.696 67.5281 168.697 67.4018 169.674 67.1682C170.555 66.9562 171.376 66.5621 172.082 66.0134C172.808 65.4323 173.37 64.6857 173.718 63.842C174.148 62.7309 174.348 61.5499 174.307 60.3653L174.293 48.7928Z" fill="#B64B29"/>
</svg>
